# xmcd
#
# Track frame offsets: 
#        150
#        13035
#        24855
#        36770
#        47584
#        59031
#        70815
#        84216
#        95992
#        111221
#        120737
#        133026
#        144002
#        152606
#        166509
#        178370
#        190197
#        201646
#        211938
#        223353
#        235333
#        246591
#        258856
#        271764
#        281389
#        294624
#        308574
#        318994
#        329797
#
# Disc length: 4566 seconds
#
# Revision: 0
# Processed by: cddbd v1.5.2PL0 Copyright (c) Steve Scherf et al.
# Submitted via: ExactAudioCopy v0.95b4
#
DISCID=b311d41d
DTITLE=Jack Blanchard and Misty Morgan - Life and Death (and almost ever
DTITLE=ything else).
DYEAR=2005
DGENRE=Country
TTITLE0=Tennesse Bird Walk
TTITLE1=Big Black Bird (Spirit of My Love)
TTITLE2=Chapel Hill
TTITLE3=The Dum Song
TTITLE4=Bethlehem Steel
TTITLE5=Poor Jody
TTITLE6=Humphrey the Camel
TTITLE7=Yellow Bellied Sapsucker
TTITLE8=Changin' Times
TTITLE9=The Clock of St. James
TTITLE10=You've Got your Troubles (I've Got Mine)
TTITLE11=A Place In My Mind
TTITLE12=The Autumn Song (On A Yellow Day)
TTITLE13=How I Lost 31 Pounds In 17 Days
TTITLE14=Somewhere In Virginia In The Rain
TTITLE15=The Shadows Of The Leaves
TTITLE16=There Must Be More To Life (Than Growing Old)
TTITLE17=The Legendary Chicken Fairy
TTITLE18=Miami Sidewalks
TTITLE19=Fire Hydrant
TTITLE20=Don't It Make You Wanta Go Home
TTITLE21=If Eggs Had Legs
TTITLE22=Second Tuesday In December
TTITLE23=A Handful of Dimes
TTITLE24=It Seems Like There Ain't No Going Home
TTITLE25=I'm Washin' Harry Down The Sink
TTITLE26=The Night We Heard The Voice
TTITLE27=Lonesome Song
TTITLE28=The Sunset Train
EXTD=
EXTT0=
EXTT1=
EXTT2=
EXTT3=
EXTT4=
EXTT5=
EXTT6=
EXTT7=
EXTT8=
EXTT9=
EXTT10=
EXTT11=
EXTT12=
EXTT13=
EXTT14=
EXTT15=
EXTT16=
EXTT17=
EXTT18=
EXTT19=
EXTT20=
EXTT21=
EXTT22=
EXTT23=
EXTT24=
EXTT25=
EXTT26=
EXTT27=
EXTT28=
PLAYORDER=
